<svg height="512pt" viewBox="-27 0 512 512" width="512pt" xmlns="http://www.w3.org/2000/svg"><path d="m416 192h-84c-17.671875 0-32-14.328125-32-32s14.328125-32 32-32h84c17.671875 0 32 14.328125 32 32s-14.328125 32-32 32zm0 0" fill="#ffb954"/><path d="m357 160c0-17.671875 14.328125-32 32-32h-57c-17.671875 0-32 14.328125-32 32s14.328125 32 32 32h57c-17.671875 0-32-14.328125-32-32zm0 0" fill="#fff"/><path d="m448 160c0-17.671875-14.328125-32-32-32h-27c-17.671875 0-32 14.328125-32 32s14.328125 32 32 32h27c17.671875 0 32-14.328125 32-32zm0 0" fill="#ffb954"/><path d="m383.609375 499.300781c5.96875-3.457031 10-9.902343 10-17.300781v-290h-20v290c0 7.398438 4.027344 13.84375 10 17.300781zm0 0" fill="#4dbaf6"/><path d="m383.609375 13.089844c-5.972656 3.460937-10 9.902344-10 17.300781v97.609375h20v-97.609375c0-7.398437-4.027344-13.839844-10-17.300781zm0 0" fill="#4dbaf6"/><path d="m170 288.785156v-230.785156c0-17.207031-9.0625-32.292969-22.667969-40.765625-13.605469 8.472656-22.664062 23.558594-22.664062 40.765625v230.785156c-37.839844 17.976563-64 56.539063-64 101.214844 0 53.144531 37.011719 97.640625 86.667969 109.121094 49.652343-11.480469 86.664062-55.976563 86.664062-109.121094 0-44.675781-26.160156-83.238281-64-101.214844zm0 0" fill="#72d8ff"/><path d="m110.667969 390c0-24.472656 14.65625-45.507812 35.667969-54.84375-7.441407-3.304688-15.671876-5.15625-24.335938-5.15625-33.136719 0-60 26.863281-60 60s26.863281 60 60 60c8.664062 0 16.894531-1.851562 24.332031-5.15625-21.007812-9.335938-35.664062-30.371094-35.664062-54.84375zm0 0" fill="#fff"/><path d="m182 390c0-24.472656-14.65625-45.507812-35.667969-54.84375-21.007812 9.335938-35.667969 30.371094-35.667969 54.84375s14.660157 45.507812 35.667969 54.84375c21.011719-9.335938 35.667969-30.371094 35.667969-54.84375zm0 0" fill="#ff5d5d"/><path d="m122 320c-38.597656 0-70 31.402344-70 70s31.402344 70 70 70 70-31.402344 70-70-31.402344-70-70-70zm0 120c-27.570312 0-50-22.429688-50-50s22.429688-50 50-50 50 22.429688 50 50-22.429688 50-50 50zm0 0"/><path d="m180 282.648438v-224.648438c0-31.980469-26.019531-58-58-58s-58 26.019531-58 58v224.648438c-18.066406 9.773437-33.398438 23.953124-44.59375 41.3125-12.695312 19.679687-19.40625 42.519531-19.40625 66.039062 0 67.269531 54.730469 122 122 122s122-54.730469 122-122c0-23.519531-6.710938-46.359375-19.40625-66.039062-11.195312-17.359376-26.527344-31.539063-44.59375-41.3125zm-58 209.351562c-56.242188 0-102-45.757812-102-102 0-39.175781 22.882812-75.359375 58.289062-92.183594 3.488282-1.65625 5.710938-5.171875 5.710938-9.03125v-230.785156c0-20.953125 17.046875-38 38-38s38 17.046875 38 38v230.785156c0 3.859375 2.222656 7.375 5.710938 9.03125 35.40625 16.824219 58.289062 53.007813 58.289062 92.183594 0 56.242188-45.757812 102-102 102zm0 0"/><path d="m122 63c2.628906 0 5.210938-1.070312 7.070312-2.929688 1.859376-1.859374 2.929688-4.441406 2.929688-7.070312s-1.070312-5.210938-2.929688-7.070312c-1.859374-1.859376-4.441406-2.929688-7.070312-2.929688s-5.210938 1.070312-7.070312 2.929688c-1.859376 1.859374-2.929688 4.441406-2.929688 7.070312s1.070312 5.210938 2.929688 7.070312c1.859374 1.859376 4.441406 2.929688 7.070312 2.929688zm0 0"/><path d="m122 293.757812c5.523438 0 10-4.480468 10-10v-187.425781c0-5.523437-4.476562-10-10-10s-10 4.476563-10 10v187.425781c0 5.519532 4.476562 10 10 10zm0 0"/><path d="m208.667969 60h18c5.519531 0 10-4.476562 10-10s-4.480469-10-10-10h-18c-5.523438 0-10 4.476562-10 10s4.476562 10 10 10zm0 0"/><path d="m208.667969 123.953125h18c5.519531 0 10-4.476563 10-10s-4.480469-10-10-10h-18c-5.523438 0-10 4.476563-10 10s4.476562 10 10 10zm0 0"/><path d="m208.667969 187.90625h18c5.519531 0 10-4.476562 10-10s-4.480469-10-10-10h-18c-5.523438 0-10 4.476562-10 10s4.476562 10 10 10zm0 0"/><path d="m208.667969 251.859375h18c5.519531 0 10-4.476563 10-10 0-5.519531-4.480469-10-10-10h-18c-5.523438 0-10 4.480469-10 10 0 5.523437 4.476562 10 10 10zm0 0"/><path d="m17.332031 60h18c5.523438 0 10-4.476562 10-10s-4.476562-10-10-10h-18c-5.519531 0-10 4.476562-10 10s4.480469 10 10 10zm0 0"/><path d="m17.332031 123.953125h18c5.523438 0 10-4.476563 10-10s-4.476562-10-10-10h-18c-5.519531 0-10 4.476563-10 10s4.480469 10 10 10zm0 0"/><path d="m17.332031 187.90625h18c5.523438 0 10-4.476562 10-10s-4.476562-10-10-10h-18c-5.519531 0-10 4.476562-10 10s4.480469 10 10 10zm0 0"/><path d="m17.332031 251.859375h18c5.523438 0 10-4.476563 10-10 0-5.519531-4.476562-10-10-10h-18c-5.519531 0-10 4.480469-10 10 0 5.523437 4.480469 10 10 10zm0 0"/><path d="m393.609375 304c-2.628906 0-5.210937 1.070312-7.070313 2.929688-1.867187 1.859374-2.929687 4.441406-2.929687 7.070312s1.0625 5.210938 2.929687 7.070312c1.859376 1.859376 4.441407 2.929688 7.070313 2.929688s5.210937-1.070312 7.070313-2.929688c1.859374-1.859374 2.929687-4.441406 2.929687-7.070312s-1.070313-5.210938-2.929687-7.070312c-1.863282-1.859376-4.441407-2.929688-7.070313-2.929688zm0 0"/><path d="m416 118h-12.390625v-87.609375c0-16.539063-13.460937-30-30-30-16.542969 0-30 13.460937-30 30v87.609375h-11.609375c-23.160156 0-42 18.839844-42 42s18.839844 42 42 42h11.609375v280c0 16.542969 13.457031 30 30 30 16.539063 0 30-13.457031 30-30v-125c0-5.523438-4.480469-10-10-10-5.523437 0-10 4.476562-10 10v125c0 5.515625-4.488281 10-10 10-5.515625 0-10-4.484375-10-10v-280h20v73c0 5.523438 4.476563 10 10 10 5.519531 0 10-4.476562 10-10v-73h12.390625c23.160156 0 42-18.839844 42-42s-18.839844-42-42-42zm-52.390625-87.609375c0-5.511719 4.484375-10 10-10 5.511719 0 10 4.488281 10 10v87.609375h-20zm52.390625 151.609375h-84c-12.132812 0-22-9.867188-22-22s9.867188-22 22-22h84c12.132812 0 22 9.867188 22 22s-9.867188 22-22 22zm0 0"/></svg>