<svg height="480pt" viewBox="0 0 480 480" width="480pt" xmlns="http://www.w3.org/2000/svg"><path d="m360 8c61.855469 0 112 50.144531 112 112s-50.144531 112-112 112-112-50.144531-112-112 50.144531-112 112-112zm56 96-56-64-56 64h32v88h48v-88zm0 0" fill="#ffda44"/><path d="m360 248c61.855469 0 112 50.144531 112 112s-50.144531 112-112 112-112-50.144531-112-112 50.144531-112 112-112zm0 192 56-64h-32v-88h-48v88h-32zm0 0" fill="#ffda44"/><path d="m360 40 56 64h-32v88h-48v-88h-32zm0 0" fill="#d80027"/><path d="m416 376-56 64-56-64h32v-88h48v88zm0 0" fill="#57a4ff"/><path d="m216 24v432c-.027344 8.824219-7.175781 15.972656-16 16h-176c-8.824219-.027344-15.972656-7.175781-16-16v-432c.027344-8.824219 7.175781-15.972656 16-16h176c8.824219.027344 15.972656 7.175781 16 16zm-48 368c.015625-18.949219-9.597656-36.605469-25.519531-46.878906l-14.480469-9.519532v-271.601562c0-8.835938-7.164062-16-16-16s-16 7.164062-16 16v271.601562l-14.480469 9.519532c-22.5 14.597656-31.492187 43.105468-21.433593 67.972656 10.054687 24.867188 36.332031 39.109375 62.65625 33.964844 26.324218-5.144532 45.304687-28.234375 45.257812-55.058594zm-104-344c0-8.835938-7.164062-16-16-16s-16 7.164062-16 16 7.164062 16 16 16c8.824219-.027344 15.972656-7.175781 16-16zm0 0" fill="#b39a7c"/><path d="m142.480469 345.121094c20.808593 13.5 30.257812 39.085937 23.214843 62.871094-7.039062 23.785156-28.890624 40.105468-53.695312 40.105468s-46.65625-16.320312-53.695312-40.105468c-7.042969-23.785157 2.40625-49.371094 23.214843-62.871094l14.480469-9.519532v-271.601562c0-8.835938 7.164062-16 16-16s16 7.164062 16 16v271.601562zm1.519531 46.878906c0-17.671875-14.328125-32-32-32s-32 14.328125-32 32 14.328125 32 32 32 32-14.328125 32-32zm0 0" fill="#d80027"/><path d="m144 392c0 17.671875-14.328125 32-32 32s-32-14.328125-32-32 14.328125-32 32-32 32 14.328125 32 32zm0 0" fill="#c6c5ca"/><path d="m64 48c0 8.835938-7.164062 16-16 16s-16-7.164062-16-16 7.164062-16 16-16 16 7.164062 16 16zm0 0" fill="#57a4ff"/><path d="m146.878906 338.398438-10.878906-7.101563v-267.296875c0-13.253906-10.746094-24-24-24s-24 10.746094-24 24v267.296875l-10.878906 7.09375c-23.761719 15.445313-34.535156 44.679687-26.480469 71.851563 8.054687 27.171874 33.019531 45.808593 61.359375 45.808593s53.304688-18.636719 61.359375-45.808593c8.054687-27.171876-2.71875-56.40625-26.480469-71.851563zm-34.878906 101.601562c-21.226562-.035156-39.910156-14.011719-45.941406-34.363281-6.03125-20.351563 2.023437-42.25 19.804687-53.84375l14.511719-9.464844c2.265625-1.480469 3.628906-4 3.625-6.703125v-271.625c0-4.417969 3.582031-8 8-8s8 3.582031 8 8v271.625c-.003906 2.703125 1.359375 5.222656 3.625 6.703125l14.511719 9.464844c17.78125 11.59375 25.835937 33.492187 19.804687 53.84375-6.03125 20.351562-24.714844 34.328125-45.941406 34.363281zm0 0"/><path d="m200 0h-176c-13.253906 0-24 10.746094-24 24v432c0 13.253906 10.746094 24 24 24h176c13.253906 0 24-10.746094 24-24v-432c0-13.253906-10.746094-24-24-24zm8 456c0 4.417969-3.582031 8-8 8h-176c-4.417969 0-8-3.582031-8-8v-432c0-4.417969 3.582031-8 8-8h176c4.417969 0 8 3.582031 8 8zm0 0"/><path d="m176 312h-24c-4.417969 0-8 3.582031-8 8s3.582031 8 8 8h24c4.417969 0 8-3.582031 8-8s-3.582031-8-8-8zm0 0"/><path d="m176 280h-24c-4.417969 0-8 3.582031-8 8s3.582031 8 8 8h24c4.417969 0 8-3.582031 8-8s-3.582031-8-8-8zm0 0"/><path d="m176 248h-24c-4.417969 0-8 3.582031-8 8s3.582031 8 8 8h24c4.417969 0 8-3.582031 8-8s-3.582031-8-8-8zm0 0"/><path d="m176 216h-24c-4.417969 0-8 3.582031-8 8s3.582031 8 8 8h24c4.417969 0 8-3.582031 8-8s-3.582031-8-8-8zm0 0"/><path d="m176 184h-24c-4.417969 0-8 3.582031-8 8s3.582031 8 8 8h24c4.417969 0 8-3.582031 8-8s-3.582031-8-8-8zm0 0"/><path d="m176 152h-24c-4.417969 0-8 3.582031-8 8s3.582031 8 8 8h24c4.417969 0 8-3.582031 8-8s-3.582031-8-8-8zm0 0"/><path d="m72 328c4.417969 0 8-3.582031 8-8s-3.582031-8-8-8h-24c-4.417969 0-8 3.582031-8 8s3.582031 8 8 8zm0 0"/><path d="m72 280h-24c-4.417969 0-8 3.582031-8 8s3.582031 8 8 8h24c4.417969 0 8-3.582031 8-8s-3.582031-8-8-8zm0 0"/><path d="m72 248h-24c-4.417969 0-8 3.582031-8 8s3.582031 8 8 8h24c4.417969 0 8-3.582031 8-8s-3.582031-8-8-8zm0 0"/><path d="m72 216h-24c-4.417969 0-8 3.582031-8 8s3.582031 8 8 8h24c4.417969 0 8-3.582031 8-8s-3.582031-8-8-8zm0 0"/><path d="m72 184h-24c-4.417969 0-8 3.582031-8 8s3.582031 8 8 8h24c4.417969 0 8-3.582031 8-8s-3.582031-8-8-8zm0 0"/><path d="m72 152h-24c-4.417969 0-8 3.582031-8 8s3.582031 8 8 8h24c4.417969 0 8-3.582031 8-8s-3.582031-8-8-8zm0 0"/><path d="m176 120h-24c-4.417969 0-8 3.582031-8 8s3.582031 8 8 8h24c4.417969 0 8-3.582031 8-8s-3.582031-8-8-8zm0 0"/><path d="m176 88h-24c-4.417969 0-8 3.582031-8 8s3.582031 8 8 8h24c4.417969 0 8-3.582031 8-8s-3.582031-8-8-8zm0 0"/><path d="m72 120h-24c-4.417969 0-8 3.582031-8 8s3.582031 8 8 8h24c4.417969 0 8-3.582031 8-8s-3.582031-8-8-8zm0 0"/><path d="m48 88c-4.417969 0-8 3.582031-8 8s3.582031 8 8 8h24c4.417969 0 8-3.582031 8-8s-3.582031-8-8-8zm0 0"/><path d="m72 48c0-13.253906-10.746094-24-24-24s-24 10.746094-24 24 10.746094 24 24 24 24-10.746094 24-24zm-32 0c0-4.417969 3.582031-8 8-8s8 3.582031 8 8-3.582031 8-8 8-8-3.582031-8-8zm0 0"/><path d="m366.023438 34.726562c-1.5625-1.65625-3.742188-2.597656-6.023438-2.597656s-4.460938.941406-6.023438 2.597656l-56 64c-2.070312 2.363282-2.566406 5.71875-1.269531 8.578126 1.300781 2.863281 4.152344 4.699218 7.292969 4.695312h24v80c0 4.417969 3.582031 8 8 8h48c4.417969 0 8-3.582031 8-8v-80h24c3.140625.003906 5.992188-1.832031 7.292969-4.695312 1.296875-2.859376.800781-6.214844-1.269531-8.578126zm17.976562 61.273438c-4.417969 0-8 3.582031-8 8v80h-32v-80c0-4.417969-3.582031-8-8-8h-14.398438l38.398438-43.847656 38.398438 43.847656zm0 0"/><path d="m480 120c0-66.273438-53.726562-120-120-120s-120 53.726562-120 120 53.726562 120 120 120c66.242188-.074219 119.925781-53.757812 120-120zm-120 104c-57.4375 0-104-46.5625-104-104s46.5625-104 104-104 104 46.5625 104 104c-.066406 57.410156-46.589844 103.933594-104 104zm0 0"/><path d="m416 368h-24v-80c0-4.417969-3.582031-8-8-8h-48c-4.417969 0-8 3.582031-8 8v80h-24c-3.140625-.003906-5.992188 1.832031-7.292969 4.695312-1.296875 2.859376-.800781 6.214844 1.269531 8.578126l56 64c1.519532 1.738281 3.714844 2.734374 6.023438 2.734374s4.503906-.996093 6.023438-2.734374l56-64c2.070312-2.363282 2.566406-5.71875 1.269531-8.578126-1.300781-2.863281-4.152344-4.699218-7.292969-4.695312zm-56 59.847656-38.398438-43.847656h14.398438c4.417969 0 8-3.582031 8-8v-80h32v80c0 4.417969 3.582031 8 8 8h14.398438zm0 0"/><path d="m360 240c-66.273438 0-120 53.726562-120 120s53.726562 120 120 120 120-53.726562 120-120c-.074219-66.242188-53.757812-119.925781-120-120zm0 224c-57.4375 0-104-46.5625-104-104s46.5625-104 104-104 104 46.5625 104 104c-.066406 57.410156-46.589844 103.933594-104 104zm0 0"/><path d="m112 352c-22.089844 0-40 17.910156-40 40s17.910156 40 40 40 40-17.910156 40-40c-.027344-22.082031-17.917969-39.972656-40-40zm0 64c-13.253906 0-24-10.746094-24-24s10.746094-24 24-24 24 10.746094 24 24-10.746094 24-24 24zm0 0"/></svg>